<?xml version="1.0" standalone="no"?><!DOCTYPE svg PUBLIC "-//W3C//DTD SVG 1.1//EN" "http://www.w3.org/Graphics/SVG/1.1/DTD/svg11.dtd"><svg t="1731390874670" class="icon" viewBox="0 0 1024 1024" version="1.1" xmlns="http://www.w3.org/2000/svg" p-id="4927" xmlns:xlink="http://www.w3.org/1999/xlink" width="200" height="200"><path d="M512.002047 92.853781c-231.531214 0-419.148265 187.617052-419.148265 419.148265 0 231.526097 187.617052 419.143149 419.148265 419.143149 231.526097 0 419.143149-187.617052 419.143149-419.143149C931.145196 280.470833 743.528144 92.853781 512.002047 92.853781L512.002047 92.853781zM336.356654 312.405149c43.51098 0 78.643128 35.128055 78.643128 78.642105 0 43.51098-35.132148 78.238922-78.643128 78.238922-43.509956 0-78.639035-35.128055-78.639035-78.638011C257.717619 347.137185 293.245787 312.405149 336.356654 312.405149L336.356654 312.405149zM191.05536 711.593827l138.517797-163.668617 32.334429 67.066465 175.640276-191.609992 29.939893 69.456908L682.853249 365.896434l150.09446 346.497619L191.05536 712.394053 191.05536 711.593827zM191.05536 711.593827" fill="#d4237a" p-id="4928"></path></svg>