<?xml version="1.0" standalone="no"?><!DOCTYPE svg PUBLIC "-//W3C//DTD SVG 1.1//EN" "http://www.w3.org/Graphics/SVG/1.1/DTD/svg11.dtd"><svg t="1731396461187" class="icon" viewBox="0 0 1024 1024" version="1.1" xmlns="http://www.w3.org/2000/svg" p-id="2410" xmlns:xlink="http://www.w3.org/1999/xlink" width="200" height="200"><path d="M0 0h1022.296173v1022.296173H0z" fill="#51A651" p-id="2411"></path><path d="M287.933125 546.790443c-7.500246 40.309138-13.044499 96.448532-16.617425 168.426702l-4.099407 62.860991c-0.819541 8.88205-4.164153 17.91574-10.016799 27.121518-5.864572 9.188739-11.536612 14.013977-17.0076 14.462083-6.793158 0.558855-14.796033-2.269498-24.017145-8.44587-9.226223-6.196819-14.000346-11.378156-14.341112-15.538902-0.98822-12.046057 0.383361-28.920759 4.119854-50.618995 26.806309-165.179208 35.18573-308.99413 25.136559-431.454988l-2.591521-27.57644c-2.380246-23.616745 0.361211-41.159348 8.244819-52.614176 7.883607-11.453125 17.518749-17.64824 28.913943-18.583641 5.252899-0.429364 10.63188 3.264532 16.128426 11.086802 5.496546 7.82227 8.863308 19.283913 10.105398 34.400267 1.741311 21.251834 1.664639 47.168745-0.238536 77.762662-2.574483 38.586569-3.733085 60.731208-3.48603 66.440732 27.971727-59.627128 58.930263-106.937291 92.892646-141.925378 33.955567-34.977864 66.599188-53.762556 97.934269-56.331926 22.122489-1.814576 41.472852 4.92406 58.051088 20.207387 16.57994 15.295255 25.886243 35.20788 27.898463 59.739581 5.859461 71.415907-16.201691 138.512612-66.186862 201.274782-49.988579 62.763874-100.938116 96.274742-152.853724 100.534309-12.925231 1.061484-23.437844-1.390323-31.534429-7.334975-8.099993-5.951468-16.910483-17.24784-26.434875-33.892525z m182.358895-281.269458c-30.89379 2.536998-66.754236 34.596206-107.572819 96.16229-40.816879 61.576306-59.903148 108.460512-57.260512 140.661138 0.64575 7.890423 5.764047 15.196433 15.36 21.902695 9.58573 6.709671 21.28591 9.495428 35.09202 8.360679 31.326562-2.571075 65.459328-28.685631 102.406815-78.365817 36.940672-49.669963 53.583654-96.854043 49.917018-141.545424-1.313651-15.987008-5.561291-28.041584-12.729291-36.170543-7.173111-8.127255-15.579794-11.795594-25.213231-11.005018z" fill="#FCFCFC" p-id="2412"></path><path d="M755.727334 378.675541l126.579009 144.978635-31.645178 36.242104-126.577305-144.976932-126.5756 144.976932-31.645178-36.242104 126.577304-144.978635-126.577304-144.976932 31.645178-36.243807 126.5756 144.978636 126.577305-144.978636 31.645178 36.243807-126.579009 144.976932z" fill="#FCFCFC" p-id="2413"></path></svg>