<?xml version="1.0" standalone="no"?><!DOCTYPE svg PUBLIC "-//W3C//DTD SVG 1.1//EN" "http://www.w3.org/Graphics/SVG/1.1/DTD/svg11.dtd"><svg t="1731395580528" class="icon" viewBox="0 0 1024 1024" version="1.1" xmlns="http://www.w3.org/2000/svg" p-id="5708" xmlns:xlink="http://www.w3.org/1999/xlink" width="200" height="200"><path d="M512 605.5c-51.5 0-93.5-42-93.5-93.5s42-93.5 93.5-93.5 93.5 42 93.5 93.5-42 93.5-93.5 93.5z" fill="#FFEB3B" p-id="5709"></path><path d="M371 128h525v768H128V371.5h126.5c-10 35.5 5 90.5 38.5 110 15.5 9 47.5 21 83 30.5-35.5 9.5-68 22-83 30.5-39.5 23-53.5 73.5-30.5 113.5 23 39.5 73.5 53.5 113.5 30.5 15.5-9 42-30.5 68-56.5-9.5 35.5-15 69.5-15 87.5 0 46 37 83 83 83s83-37 83-83c0-17.5-5.5-52-15-87.5 26 26 53 47.5 68 56.5 39.5 23 90.5 9.5 113.5-30.5 23-39.5 9.5-90.5-30.5-113.5-15.5-9-47.5-21-83-30.5 35.5-9.5 67.5-22 83-30.5 39.5-23 53.5-73.5 30.5-113.5-23-39.5-73.5-53-113.5-30.5-15.5 9-42 30.5-68 56.5 9.5-35.5 15-69.5 15-87 0-46-37-83-83-83s-83 37-83 83c0 17.5 5.5 52 15 87.5-20.5-20-58-38-73-49V128z" fill="#8BC34A" p-id="5710"></path><path d="M355.5 371.5H128l243.5-243.5v243.5z" fill="#689F38" p-id="5711"></path><path d="M418.5 512c0-51.5 42-93.5 93.5-93.5s93.5 42 93.5 93.5-42 93.5-93.5 93.5-93.5-42-93.5-93.5z m343 144c23-39.5 9.5-90.5-30.5-113.5-15.5-9-47.5-21-83-30.5 35.5-9.5 67.5-22 83-30.5 39.5-23 53.5-73.5 30.5-113.5-23-39.5-73.5-53-113.5-30.5-15.5 9-42 30.5-68 56.5 9.5-35.5 15-69.5 15-87 0-46-37-83-83-83s-83 37-83 83c0 17.5 5.5 52 15 87.5-20-20-57-37.5-72.5-48.5v26H254.5c-10 35.5 5 90.5 38.5 110 15.5 9 47.5 21 83 30.5-35.5 9.5-68 22-83 30.5-39.5 23-53.5 73.5-30.5 113.5 23 39.5 73.5 53.5 113.5 30.5 15.5-9 42-30.5 68-56.5-9.5 35.5-15 69.5-15 87.5 0 46 37 83 83 83s83-37 83-83c0-17.5-5.5-52-15-87.5 26 26 53 47.5 68 56.5 39.5 23 90.5 9.5 113.5-30.5v-0.5z" fill="#D50000" p-id="5712"></path><path d="M512 418.5c51.5 0 93.5 42 93.5 93.5s-42 93.5-93.5 93.5V418.5z" fill="#FBD435" p-id="5713"></path><path d="M512 128h384v768h-384v-96c46 0 83-37 83-83 0-17.5-5.5-52-15-87.5 26 26 53 47.5 68 56.5 39.5 23 90.5 9.5 113.5-30.5 23-39.5 9.5-90.5-30.5-113.5-15.5-9-47.5-21-83-30.5 35.5-9.5 67.5-22 83-30.5 39.5-23 53.5-73.5 30.5-113.5-23-39.5-73.5-53-113.5-30.5-15.5 9-42 30.5-68 56.5 9.5-35.5 15-69.5 15-87 0-46-37-83-83-83V127.5v0.5z" fill="#92B043" p-id="5714"></path><path d="M512 418.5c51.5 0 93.5 42 93.5 93.5s-42 93.5-93.5 93.5v194.5c46 0 83-37 83-83 0-17.5-5.5-52-15-87.5 26 26 53 47.5 68 56.5 39.5 23 90.5 9.5 113.5-30.5 23-39.5 9.5-90.5-30.5-113.5-15.5-9-47.5-21-83-30.5 35.5-9.5 67.5-22 83-30.5 39.5-23 53.5-73.5 30.5-113.5-23-39.5-73.5-53-113.5-30.5-15.5 9-42 30.5-68 56.5 9.5-35.5 15-69.5 15-87 0-46-37-83-83-83v195z" fill="#D50000" p-id="5715"></path></svg>