<svg width="1280" height="720" xmlns="http://www.w3.org/2000/svg" xmlns:xlink="http://www.w3.org/1999/xlink" overflow="hidden"><defs><clipPath id="clip0"><rect x="0" y="0" width="1280" height="720"/></clipPath></defs><g clip-path="url(#clip0)"><rect x="0" y="0" width="1280" height="720" fill="#FFFFFF" fill-opacity="0"/><path d="" transform="translate(683.381 343)"/><path d="M25.7461-21.9023 27.4219-21.9023C27.7734-21.9023 28.1016-21.8359 28.4062-21.7031 28.7109-21.5703 28.9785-21.3887 29.209-21.1582 29.4395-20.9277 29.6211-20.6602 29.7539-20.3555 29.8867-20.0508 29.9531-19.7227 29.9531-19.3711L29.9531-17.6953C29.9531-16.8906 29.7988-16.127 29.4902-15.4043 29.1816-14.6816 28.7461-14.0391 28.1836-13.4766 28.7461-12.9141 29.1816-12.2734 29.4902-11.5547 29.7988-10.8359 29.9531-10.0742 29.9531-9.26953L29.9531-2.53125 27.4219-2.53125C27.0547-2.53125 26.6914-2.56445 26.332-2.63086 25.9727-2.69727 25.6211-2.79688 25.2773-2.92969 25.1367-2.55469 24.9629-2.19336 24.7559-1.8457 24.5488-1.49805 24.3164-1.17188 24.0586-0.867188 24.0586-0.367188 23.9746 0.113281 23.8066 0.574219 23.6387 1.03516 23.4043 1.44922 23.1035 1.81641 22.8027 2.18359 22.4434 2.49609 22.0254 2.75391 21.6074 3.01172 21.1523 3.1875 20.6602 3.28125 20.0977 3.84375 19.4609 4.2793 18.75 4.58789 18.0391 4.89648 17.2812 5.05078 16.4766 5.05078 15.6719 5.05078 14.9121 4.89648 14.1973 4.58789 13.4824 4.2793 12.8437 3.84375 12.2812 3.28125 11.7891 3.17969 11.334 3.00195 10.916 2.74805 10.498 2.49414 10.1406 2.18359 9.84375 1.81641 9.54688 1.44922 9.31445 1.03711 9.14648 0.580078 8.97852 0.123047 8.89453-0.359375 8.89453-0.867188 8.63672-1.17188 8.4043-1.49805 8.19727-1.8457 7.99023-2.19336 7.81641-2.55469 7.67578-2.92969 7.33203-2.79688 6.98047-2.69727 6.62109-2.63086 6.26172-2.56445 5.89844-2.53125 5.53125-2.53125L3-2.53125 3-9.26953C3-10.0742 3.1543-10.8359 3.46289-11.5547 3.77148-12.2734 4.20703-12.9141 4.76953-13.4766 4.20703-14.0391 3.77148-14.6816 3.46289-15.4043 3.1543-16.127 3-16.8906 3-17.6953L3-19.3711C3-19.7227 3.06641-20.0508 3.19922-20.3555 3.33203-20.6602 3.51367-20.9277 3.74414-21.1582 3.97461-21.3887 4.24219-21.5703 4.54688-21.7031 4.85156-21.8359 5.17969-21.9023 5.53125-21.9023L7.20703-21.9023 7.20703-19.3711C7.20703-19.1445 7.29102-18.9473 7.45898-18.7793 7.62695-18.6113 7.82422-18.5273 8.05078-18.5273L24.9023-18.5273C25.1289-18.5273 25.3262-18.6113 25.4941-18.7793 25.6621-18.9473 25.7461-19.1445 25.7461-19.3711Z" transform="translate(683.381 343)"/><path d="M5.53125-20.2148 5.53125-19.3711C5.53125-19.0195 5.59766-18.6914 5.73047-18.3867 5.86328-18.082 6.04297-17.8164 6.26953-17.5898 6.49609-17.3633 6.76172-17.1836 7.06641-17.0508 7.37109-16.918 7.69922-16.8516 8.05078-16.8516L12.2695-16.8516 12.2695-13.4766 8.89453-13.4766C8.30859-13.4766 7.76172-13.5879 7.25391-13.8105 6.74609-14.0332 6.30078-14.334 5.91797-14.7129 5.53516-15.0918 5.23438-15.5371 5.01562-16.0488 4.79688-16.5605 4.6875-17.1094 4.6875-17.6953L4.6875-19.3711C4.6875-19.6055 4.76953-19.8047 4.93359-19.9688 5.09766-20.1328 5.29688-20.2148 5.53125-20.2148ZM27.4219-20.2148C27.6562-20.2148 27.8555-20.1328 28.0195-19.9688 28.1836-19.8047 28.2656-19.6055 28.2656-19.3711L28.2656-17.6953C28.2656-17.1172 28.1543-16.5723 27.9316-16.0605 27.709-15.5488 27.4082-15.1016 27.0293-14.7188 26.6504-14.3359 26.2051-14.0332 25.6934-13.8105 25.1816-13.5879 24.6367-13.4766 24.0586-13.4766L20.6836-13.4766 20.6836-16.8516 24.9023-16.8516C25.2539-16.8516 25.582-16.918 25.8867-17.0508 26.1914-17.1836 26.457-17.3633 26.6836-17.5898 26.9102-17.8164 27.0898-18.082 27.2227-18.3867 27.3555-18.6914 27.4219-19.0195 27.4219-19.3711Z" fill="#757575" transform="translate(683.381 343)"/><path d="M4.6875-4.21875 4.6875-6.73828C4.6875-6.76172 4.7168-6.86914 4.77539-7.06055 4.83398-7.25195 4.9082-7.48633 4.99805-7.76367 5.08789-8.04102 5.1875-8.3457 5.29688-8.67773 5.40625-9.00977 5.50977-9.32422 5.60742-9.62109 5.70508-9.91797 5.79102-10.1797 5.86523-10.4062 5.93945-10.6328 5.99219-10.7852 6.02344-10.8633L9.73828-11.7891 9.73828-8.42578C9.73828-7.84766 9.62695-7.30273 9.4043-6.79102 9.18164-6.2793 8.88086-5.83398 8.50195-5.45508 8.12305-5.07617 7.67773-4.77539 7.16602-4.55273 6.6543-4.33008 6.10937-4.21875 5.53125-4.21875ZM23.2148-8.42578 23.2148-11.7891 26.625-10.9688 28.2656-6.73828 28.2656-4.21875 27.4219-4.21875C26.8437-4.21875 26.2988-4.32812 25.7871-4.54688 25.2754-4.76562 24.8281-5.06641 24.4453-5.44922 24.0625-5.83203 23.7617-6.2793 23.543-6.79102 23.3242-7.30273 23.2148-7.84766 23.2148-8.42578Z" fill="#8E562E" transform="translate(683.381 343)"/><path d="M24.0586-13.4766C24.6367-13.4766 25.1816-13.3652 25.6934-13.1426 26.2051-12.9199 26.6504-12.6191 27.0293-12.2402 27.4082-11.8613 27.709-11.416 27.9316-10.9043 28.1543-10.3926 28.2656-9.84766 28.2656-9.26953L28.2656-6.73828 24.0586-10.957 24.0586-5.47266C24.0586-4.71484 23.916-4.00391 23.6309-3.33984 23.3457-2.67578 22.9551-2.0957 22.459-1.59961 21.9629-1.10352 21.3828-0.712891 20.7188-0.427734 20.0547-0.142578 19.3438 0 18.5859 0 17.8438 0 17.1406-0.140625 16.4766-0.421875 15.8047-0.140625 15.1016 0 14.3672 0 13.6094 0 12.8984-0.142578 12.2344-0.427734 11.5703-0.712891 10.9902-1.10352 10.4941-1.59961 9.99805-2.0957 9.60742-2.67578 9.32227-3.33984 9.03711-4.00391 8.89453-4.71484 8.89453-5.47266L8.89453-10.957 4.6875-6.73828 4.6875-9.26953C4.6875-9.84766 4.79883-10.3926 5.02148-10.9043 5.24414-11.416 5.54492-11.8613 5.92383-12.2402 6.30273-12.6191 6.74805-12.9199 7.25977-13.1426 7.77148-13.3652 8.31641-13.4766 8.89453-13.4766 8.89453-13.9453 8.98242-14.3848 9.1582-14.7949 9.33398-15.2051 9.57422-15.5625 9.87891-15.8672 10.1836-16.1719 10.541-16.4121 10.9512-16.5879 11.3613-16.7637 11.8008-16.8516 12.2695-16.8516L20.6836-16.8516C21.1523-16.8516 21.5918-16.7637 22.002-16.5879 22.4121-16.4121 22.7695-16.1719 23.0742-15.8672 23.3789-15.5625 23.6191-15.2051 23.7949-14.7949 23.9707-14.3848 24.0586-13.9453 24.0586-13.4766Z" fill="#BB9167" transform="translate(683.381 343)"/><path d="M11.0039-12.6328C11.1758-12.6328 11.3379-12.5996 11.4902-12.5332 11.6426-12.4668 11.7773-12.377 11.8945-12.2637 12.0117-12.1504 12.1035-12.0176 12.1699-11.8652 12.2363-11.7129 12.2695-11.5508 12.2695-11.3789L12.2695-9.69141C12.2695-9.51953 12.2363-9.35742 12.1699-9.20508 12.1035-9.05273 12.0117-8.91797 11.8945-8.80078 11.7773-8.68359 11.6426-8.5918 11.4902-8.52539 11.3379-8.45898 11.1758-8.42578 11.0039-8.42578 10.8242-8.42578 10.6582-8.45898 10.5059-8.52539 10.3535-8.5918 10.2207-8.68164 10.1074-8.79492 9.99414-8.9082 9.9043-9.04102 9.83789-9.19336 9.77148-9.3457 9.73828-9.51172 9.73828-9.69141L9.73828-11.3789C9.73828-11.5508 9.77148-11.7148 9.83789-11.8711 9.9043-12.0273 9.99609-12.1602 10.1133-12.2695 10.2305-12.3789 10.3652-12.4668 10.5176-12.5332 10.6699-12.5996 10.832-12.6328 11.0039-12.6328ZM21.9492-12.6328C22.1211-12.6328 22.2832-12.5996 22.4355-12.5332 22.5879-12.4668 22.7227-12.3789 22.8398-12.2695 22.957-12.1602 23.0488-12.0273 23.1152-11.8711 23.1816-11.7148 23.2148-11.5508 23.2148-11.3789L23.2148-9.69141C23.2148-9.51172 23.1816-9.3457 23.1152-9.19336 23.0488-9.04102 22.959-8.9082 22.8457-8.79492 22.7324-8.68164 22.5977-8.5918 22.4414-8.52539 22.2852-8.45898 22.1211-8.42578 21.9492-8.42578 21.7773-8.42578 21.6152-8.45898 21.4629-8.52539 21.3105-8.5918 21.1758-8.68359 21.0586-8.80078 20.9414-8.91797 20.8496-9.05273 20.7832-9.20508 20.7168-9.35742 20.6836-9.51953 20.6836-9.69141L20.6836-11.3789C20.6836-11.5508 20.7168-11.7129 20.7832-11.8652 20.8496-12.0176 20.9414-12.1504 21.0586-12.2637 21.1758-12.377 21.3105-12.4668 21.4629-12.5332 21.6152-12.5996 21.7773-12.6328 21.9492-12.6328Z" transform="translate(683.381 343)"/><path d="M16.4766 3.36328C15.8984 3.36328 15.3535 3.25391 14.8418 3.03516 14.3301 2.81641 13.8828 2.51562 13.5 2.13281 13.1172 1.75 12.8164 1.30273 12.5977 0.791016 12.3789 0.279297 12.2695-0.265625 12.2695-0.84375L20.6836-0.84375C20.6836-0.265625 20.5723 0.279297 20.3496 0.791016 20.127 1.30273 19.8262 1.74805 19.4473 2.12695 19.0684 2.50586 18.623 2.80664 18.1113 3.0293 17.5996 3.25195 17.0547 3.36328 16.4766 3.36328ZM16.4766-15.1641C16.8281-15.1641 17.1562-15.0977 17.4609-14.9648 17.7656-14.832 18.0332-14.6504 18.2637-14.4199 18.4941-14.1895 18.6758-13.9219 18.8086-13.6172 18.9414-13.3125 19.0078-12.9844 19.0078-12.6328L19.0078-8.42578C19.0078-8.05859 19.0469-7.68164 19.125-7.29492 19.2031-6.9082 19.3145-6.53125 19.459-6.16406 19.6035-5.79688 19.7793-5.44531 19.9863-5.10938 20.1934-4.77344 20.4258-4.47656 20.6836-4.21875L12.2695-4.21875C12.5273-4.47656 12.7598-4.77344 12.9668-5.10938 13.1738-5.44531 13.3496-5.79688 13.4941-6.16406 13.6387-6.53125 13.75-6.9082 13.8281-7.29492 13.9062-7.68164 13.9453-8.05859 13.9453-8.42578L13.9453-12.6328C13.9453-12.9844 14.0117-13.3125 14.1445-13.6172 14.2773-13.9219 14.459-14.1895 14.6895-14.4199 14.9199-14.6504 15.1875-14.832 15.4922-14.9648 15.7969-15.0977 16.125-15.1641 16.4766-15.1641Z" fill="#FFFFFF" transform="translate(683.381 343)"/><path d="M19.8398-5.05078C20.1914-5.05078 20.5195-4.98438 20.8242-4.85156 21.1289-4.71875 21.3965-4.53906 21.627-4.3125 21.8574-4.08594 22.0391-3.82031 22.1719-3.51562 22.3047-3.21094 22.3711-2.88281 22.3711-2.53125L22.3711-0.84375C22.3711-0.492188 22.3047-0.164062 22.1719 0.140625 22.0391 0.445312 21.8574 0.712891 21.627 0.943359 21.3965 1.17383 21.1289 1.35547 20.8242 1.48828 20.5195 1.62109 20.1914 1.6875 19.8398 1.6875L13.1016 1.6875C12.75 1.6875 12.4219 1.62109 12.1172 1.48828 11.8125 1.35547 11.5469 1.17383 11.3203 0.943359 11.0938 0.712891 10.9141 0.445312 10.7812 0.140625 10.6484-0.164062 10.582-0.492188 10.582-0.84375L10.582-2.53125C10.582-2.88281 10.6484-3.21094 10.7812-3.51562 10.9141-3.82031 11.0938-4.08594 11.3203-4.3125 11.5469-4.53906 11.8125-4.71875 12.1172-4.85156 12.4219-4.98438 12.75-5.05078 13.1016-5.05078Z" fill="#F7894A" transform="translate(683.381 343)"/><path d="M12.2695-1.6875C12.2695-1.83594 12.2969-1.97852 12.3516-2.11523 12.4062-2.25195 12.4824-2.37305 12.5801-2.47852 12.6777-2.58398 12.793-2.66602 12.9258-2.72461 13.0586-2.7832 13.2031-2.8125 13.3594-2.8125 13.4687-2.8125 13.5762-2.79688 13.6816-2.76562 13.7871-2.73438 13.8867-2.69141 13.9805-2.63672L15.6328-1.6875 13.9805-0.738281C13.8867-0.683594 13.7871-0.640625 13.6816-0.609375 13.5762-0.578125 13.4687-0.5625 13.3594-0.5625 13.2031-0.5625 13.0586-0.591797 12.9258-0.650391 12.793-0.708984 12.6777-0.791016 12.5801-0.896484 12.4824-1.00195 12.4062-1.12109 12.3516-1.25391 12.2969-1.38672 12.2695-1.53125 12.2695-1.6875ZM19.5938-2.8125C19.75-2.8125 19.8945-2.7832 20.0273-2.72461 20.1602-2.66602 20.2754-2.58398 20.373-2.47852 20.4707-2.37305 20.5469-2.25195 20.6016-2.11523 20.6562-1.97852 20.6836-1.83594 20.6836-1.6875 20.6836-1.35938 20.582-1.08984 20.3789-0.878906 20.1758-0.667969 19.9102-0.5625 19.582-0.5625 19.4727-0.5625 19.3672-0.578125 19.2656-0.609375 19.1641-0.640625 19.0664-0.683594 18.9727-0.738281L17.3203-1.6875 18.9727-2.63672C19.0664-2.69141 19.166-2.73438 19.2715-2.76562 19.377-2.79688 19.4844-2.8125 19.5938-2.8125Z" fill="#CA5010" transform="translate(683.381 343)"/><text fill="#000000" fill-opacity="0" font-family="Arial,Arial_MSFontService,sans-serif" font-size="2.25" x="12.2695" y="-0.84375">🐮</text><path d="" transform="translate(716.381 343)"/><path d="M21.5273-21.9023 21.5273-18.5273C21.5273-18.3008 21.6113-18.1055 21.7793-17.9414 21.9473-17.7773 22.1445-17.6953 22.3711-17.6953L24.9023-17.6953C25.4805-17.6953 26.0254-17.584 26.5371-17.3613 27.0488-17.1387 27.4941-16.8359 27.873-16.4531 28.252-16.0703 28.5527-15.623 28.7754-15.1113 28.998-14.5996 29.1094-14.0547 29.1094-13.4766L29.1094-11.1914C29.3828-10.7852 29.5918-10.3457 29.7363-9.87305 29.8809-9.40039 29.9531-8.91797 29.9531-8.42578L29.9531-1.28906 26.7773 5.05078 21.3281 5.05078C21.9141 3.88672 22.498 2.72656 23.0801 1.57031 23.6621 0.414062 24.2344-0.753906 24.7969-1.93359L21.5273 0.785156 21.5273 3.36328 16.4766 3.36328 16.4766-0.5625 17.4961-1.92188C17.082-1.8125 16.666-1.74609 16.248-1.72266 15.8301-1.69922 15.4102-1.6875 14.9883-1.6875L11.625 5.05078 6.16406 5.05078 8.13281 1.125 6.26953-0.738281C6.02734-0.980469 5.84375-1.25391 5.71875-1.55859 5.59375-1.86328 5.53125-2.1875 5.53125-2.53125L5.53125-5.89453C5.53125-6.24609 5.59766-6.57422 5.73047-6.87891 5.86328-7.18359 6.04297-7.45117 6.26953-7.68164 6.49609-7.91211 6.76172-8.09375 7.06641-8.22656 7.37109-8.35938 7.69922-8.42578 8.05078-8.42578L9.53906-8.42578 8.94141-9.62109C8.61328-9.24609 8.22656-8.95312 7.78125-8.74219 7.33594-8.53125 6.86328-8.42578 6.36328-8.42578 5.90234-8.42578 5.4668-8.51367 5.05664-8.68945 4.64648-8.86523 4.28906-9.10547 3.98438-9.41016 3.67969-9.71484 3.43945-10.0723 3.26367-10.4824 3.08789-10.8926 3-11.3281 3-11.7891 3-11.8594 3.00195-11.959 3.00586-12.0879 3.00977-12.2168 3.02344-12.3125 3.04688-12.375 3.07812-12.4766 3.13867-12.5937 3.22852-12.7266 3.31836-12.8594 3.39453-12.9727 3.45703-13.0664 3.58203-13.2695 3.70117-13.4766 3.81445-13.6875 3.92773-13.8984 4.03516-14.1133 4.13672-14.332 4.35547-14.8164 4.53125-15.2852 4.66406-15.7383 4.79688-16.1914 4.95703-16.6191 5.14453-17.0215 5.33203-17.4238 5.58008-17.793 5.88867-18.1289 6.19727-18.4648 6.63672-18.7617 7.20703-19.0195L7.20703-20.2148C7.40234-20.2148 7.5957-20.2168 7.78711-20.2207 7.97852-20.2246 8.17188-20.2266 8.36719-20.2266 8.88281-20.2266 9.36914-20.1738 9.82617-20.0684 10.2832-19.9629 10.7109-19.7305 11.1094-19.3711L15.6328-19.3711 15.6328-17.6953 17.3203-17.6953 17.3203-19.3711C17.3203-19.7148 17.3867-20.041 17.5195-20.3496 17.6523-20.6582 17.832-20.9277 18.0586-21.1582 18.2852-21.3887 18.5527-21.5703 18.8613-21.7031 19.1699-21.8359 19.4961-21.9023 19.8398-21.9023Z" transform="translate(716.381 343)"/><path d="M21.5273-4.5 21.5273-8.42578 25.4062-5.40234 24.9023-4.21875 19.8398 0 19.8398 1.6875 18.1641 1.6875 18.1641 0ZM7.20703-5.89453C7.20703-6.12891 7.28906-6.32812 7.45312-6.49219 7.61719-6.65625 7.81641-6.73828 8.05078-6.73828L13.1016-6.73828 13.1016-5.05078 8.89453-5.05078 8.89453-2.88281 9.91406-1.86328 8.71875-0.667969 7.875-1.51172C7.72656-1.66016 7.57812-1.81055 7.42969-1.96289 7.28125-2.11523 7.20703-2.30469 7.20703-2.53125Z" fill="#CA5010" transform="translate(716.381 343)"/><path d="M16.4766-16.0078C16.4766-15.7109 16.4355-15.4199 16.3535-15.1348 16.2715-14.8496 16.1562-14.5781 16.0078-14.3203L18.1641-14.3203C18.1641-13.8516 18.0762-13.4141 17.9004-13.0078 17.7246-12.6016 17.4844-12.2461 17.1797-11.9414 16.875-11.6367 16.5176-11.3965 16.1074-11.2207 15.6973-11.0449 15.2578-10.957 14.7891-10.957L9.73828-16.0078 6.52734-16.0078C6.62109-16.2578 6.74609-16.4863 6.90234-16.6934 7.05859-16.9004 7.24023-17.0781 7.44727-17.2266 7.6543-17.375 7.87891-17.4902 8.12109-17.5723 8.36328-17.6543 8.62109-17.6953 8.89453-17.6953L13.9453-17.6953C13.9453-17.3984 13.9062-17.1055 13.8281-16.8164 13.75-16.5273 13.6328-16.2578 13.4766-16.0078ZM19.8398-20.2148 19.8398-18.5273C19.8398-18.1758 19.9062-17.8477 20.0391-17.543 20.1719-17.2383 20.3535-16.9727 20.584-16.7461 20.8145-16.5195 21.082-16.3398 21.3867-16.207 21.6914-16.0742 22.0195-16.0078 22.3711-16.0078L24.9023-16.0078C25.2539-16.0078 25.582-15.9414 25.8867-15.8086 26.1914-15.6758 26.457-15.4941 26.6836-15.2637 26.9102-15.0332 27.0898-14.7656 27.2227-14.4609 27.3555-14.1562 27.4219-13.8281 27.4219-13.4766L27.4219-10.5352 26.5781-10.5352 26.5781-10.957C26.5781-11.3086 26.5117-11.6367 26.3789-11.9414 26.2461-12.2461 26.0664-12.5117 25.8398-12.7383 25.6133-12.9648 25.3477-13.1445 25.043-13.2773 24.7383-13.4102 24.4102-13.4766 24.0586-13.4766L21.5273-13.4766C21.1758-13.4766 20.8477-13.543 20.543-13.6758 20.2383-13.8086 19.9727-13.9902 19.7461-14.2207 19.5195-14.4512 19.3398-14.7187 19.207-15.0234 19.0742-15.3281 19.0078-15.6562 19.0078-16.0078L19.0078-19.3711C19.0078-19.5977 19.0898-19.7949 19.2539-19.9629 19.418-20.1309 19.6133-20.2148 19.8398-20.2148Z" fill="#8E562E" transform="translate(716.381 343)"/><path d="M16.4766-11.7891 24.9023-11.7891C25.3633-11.7891 25.7988-11.7012 26.209-11.5254 26.6191-11.3496 26.9766-11.1094 27.2812-10.8047 27.5859-10.5 27.8262-10.1426 28.002-9.73242 28.1777-9.32227 28.2656-8.88672 28.2656-8.42578L28.2656-1.6875 25.7461 3.36328 24.0586 3.36328C24.5352 2.42578 25.0039 1.49219 25.4648 0.5625 25.9258-0.367187 26.3906-1.30469 26.8594-2.25L21.9492-7.16016C21.4648-6.67578 21.0039-6.20703 20.5664-5.75391 20.1289-5.30078 19.6699-4.89844 19.1895-4.54688 18.709-4.19531 18.1836-3.91211 17.6133-3.69727 17.043-3.48242 16.3828-3.375 15.6328-3.375L13.9453-3.375 10.582 3.36328 8.89453 3.36328C9.46484 2.23828 10.0293 1.11719 10.5879 0 11.1465-1.11719 11.707-2.24219 12.2695-3.375L12.2695-6.73828 9.73828-11.7891C9.48047-11.7656 9.21875-11.7539 8.95312-11.7539 7.97656-11.7539 7.02734-11.8516 6.10547-12.0469L6-13.8516 8.05078-16.0195C8.17578-16.1523 8.30664-16.2695 8.44336-16.3711 8.58008-16.4727 8.73047-16.5625 8.89453-16.6406L8.89453-18.5273C9.12891-18.5273 9.34766-18.4844 9.55078-18.3984 9.75391-18.3125 9.93164-18.1934 10.084-18.041 10.2363-17.8887 10.3574-17.7109 10.4473-17.5078 10.5371-17.3047 10.582-17.0859 10.582-16.8516Z" fill="#F7894A" transform="translate(716.381 343)"/><path d="M6-13.8516 8.05078-11.7891C8.05078-11.5547 8.00586-11.3359 7.91602-11.1328 7.82617-10.9297 7.70508-10.752 7.55273-10.5996 7.40039-10.4473 7.22266-10.3281 7.01953-10.2422 6.81641-10.1562 6.59766-10.1133 6.36328-10.1133 6.12891-10.1133 5.91016-10.1562 5.70703-10.2422 5.50391-10.3281 5.32617-10.4473 5.17383-10.5996 5.02148-10.752 4.90234-10.9297 4.81641-11.1328 4.73047-11.3359 4.6875-11.5547 4.6875-11.7891 4.6875-12.0156 4.72852-12.2227 4.81055-12.4102 4.89258-12.5977 4.99805-12.7734 5.12695-12.9375 5.25586-13.1016 5.39844-13.2559 5.55469-13.4004 5.71094-13.5449 5.85938-13.6953 6-13.8516Z" fill="#F2F2F2" transform="translate(716.381 343)"/><path d="M8.47266-15.1641C8.58984-15.1641 8.68945-15.123 8.77148-15.041 8.85352-14.959 8.89453-14.8594 8.89453-14.7422L8.89453-13.8984C8.89453-13.7812 8.85352-13.6816 8.77148-13.5996 8.68945-13.5176 8.58984-13.4766 8.47266-13.4766 8.35547-13.4766 8.25586-13.5176 8.17383-13.5996 8.0918-13.6816 8.05078-13.7812 8.05078-13.8984L8.05078-14.7422C8.05078-14.8594 8.0918-14.959 8.17383-15.041 8.25586-15.123 8.35547-15.1641 8.47266-15.1641Z" transform="translate(716.381 343)"/><text fill="#000000" fill-opacity="0" font-family="Arial,Arial_MSFontService,sans-serif" font-size="1.6875" x="8.05078" y="-13.6875">🐎</text><path d="M370 370 938.296 370 938.296 374 370 374ZM936.296 366 948.296 372 936.296 378Z" fill="#BFBFBF"/><path d="M434 372 434 413.262" stroke="#BFBFBF" stroke-width="4" stroke-miterlimit="8" fill="none" fill-rule="evenodd"/><path d="M674 372 674 413.262" stroke="#BFBFBF" stroke-width="4" stroke-miterlimit="8" fill="none" fill-rule="evenodd"/><path d="M789 372 789 413.262" stroke="#BFBFBF" stroke-width="4" stroke-miterlimit="8" fill="none" fill-rule="evenodd"/><text fill="#D9D9D9" font-family="ADLaM Display,ADLaM Display_MSFontService,sans-serif" font-weight="400" font-size="27" transform="translate(401.336 443)">2020</text><text fill="#D9D9D9" font-family="STLiti,STLiti_MSFontService,sans-serif" font-weight="400" font-size="27" transform="translate(768.945 442)">现在</text><text fill="#D9D9D9" font-family="ADLaM Display,ADLaM Display_MSFontService,sans-serif" font-weight="400" font-size="27" transform="translate(628.777 443)">2024</text><path d="M434.5 363.5C434.5 360.739 436.739 358.5 439.5 358.5L669.5 358.5C672.261 358.5 674.5 360.739 674.5 363.5L674.5 383.5C674.5 386.261 672.261 388.5 669.5 388.5L439.5 388.5C436.739 388.5 434.5 386.261 434.5 383.5Z" stroke="#215F9A" stroke-width="0.333333" stroke-miterlimit="8" fill="#156082" fill-rule="evenodd"/><path d="M674.5 362.5C674.5 359.739 676.739 357.5 679.5 357.5L784.5 357.5C787.261 357.5 789.5 359.739 789.5 362.5L789.5 382.5C789.5 385.261 787.261 387.5 784.5 387.5L679.5 387.5C676.739 387.5 674.5 385.261 674.5 382.5Z" stroke="#7030A0" stroke-width="0.333333" stroke-miterlimit="8" fill="#7030A0" fill-rule="evenodd"/><text fill="#104862" font-family="ADLaM Display,ADLaM Display_MSFontService,sans-serif" font-weight="400" font-size="27" transform="translate(519.027 346)">ZUFE</text></g></svg>